<svg width="22" height="20" viewBox="0 0 22 20" fill="none" xmlns="http://www.w3.org/2000/svg">
<path fill-rule="evenodd" clip-rule="evenodd" d="M11.2542 3.28931C9.06171 5.01096 6.01714 8.17645 1.58559 12.836C1.23184 13.208 0.648032 13.2184 0.281638 12.8593C-0.084756 12.5001 -0.0949972 11.9074 0.258764 11.5355C4.64531 6.92316 7.80102 3.63375 10.1258 1.80823C11.2795 0.902303 12.3397 0.2644 13.3261 0.066074C13.8395 -0.0371241 14.3519 -0.0254589 14.8448 0.14391C15.3369 0.31298 15.7494 0.618501 16.0951 1.00943C16.7171 1.71267 16.6879 2.61628 16.4851 3.3646C16.2799 4.122 15.8447 4.94548 15.315 5.76849C14.2488 7.42522 12.6296 9.33585 11.0594 11.1292C9.49558 12.9152 8.49442 14.3295 8.05022 15.3566C7.82755 15.8715 7.7881 16.1928 7.80821 16.3671C7.82151 16.4823 7.85611 16.5519 7.98883 16.6333C8.10107 16.7021 8.32222 16.7561 8.76776 16.6091C9.20998 16.4633 9.73572 16.1606 10.3041 15.7443C11.4154 14.9304 12.4923 13.8324 13.1563 13.1555L13.1937 13.1173C13.4495 12.8565 13.712 12.5652 13.9968 12.249C14.1304 12.1007 14.2689 11.947 14.414 11.7884C14.8492 11.3125 15.3306 10.8077 15.8223 10.4044C16.2953 10.0166 16.8882 9.62813 17.5495 9.53722C18.3141 9.43199 19.0047 9.74253 19.5198 10.4086C20.1657 11.2437 19.9824 12.2331 19.7167 12.9535C19.4517 13.672 18.9894 14.4383 18.5835 15.1109L18.5504 15.1657C18.1087 15.898 17.7297 16.534 17.5212 17.0931C17.3069 17.6682 17.3756 17.8889 17.4361 17.9811C17.5188 18.1071 17.5776 18.124 17.6679 18.1272C17.8192 18.1327 18.0744 18.0738 18.433 17.8851C19.1425 17.5115 19.9077 16.8166 20.3954 16.2719C20.738 15.8894 21.3213 15.8612 21.6981 16.209C22.075 16.5568 22.1028 17.1489 21.7602 17.5315C21.1981 18.1591 20.2627 19.0309 19.2821 19.5472C18.7956 19.8034 18.2084 20.0203 17.6024 19.9985C16.9357 19.9744 16.3226 19.661 15.9015 19.0197C15.332 18.1526 15.5198 17.1721 15.7963 16.4304C16.0737 15.6862 16.5451 14.9047 16.9555 14.2244L16.9776 14.1879C17.4211 13.4525 17.7924 12.831 17.9895 12.2969C18.193 11.7452 18.0964 11.6001 18.0693 11.565C17.9209 11.3731 17.8509 11.3842 17.8055 11.3914C17.8026 11.3918 17.7999 11.3922 17.7972 11.3926C17.6486 11.4131 17.3817 11.5327 16.9813 11.861C16.5997 12.174 16.1941 12.5938 15.7656 13.0624C15.6434 13.196 15.5175 13.3357 15.3902 13.4769C15.0913 13.8087 14.7847 14.1488 14.5005 14.4385C14.4808 14.4587 14.4605 14.4794 14.4397 14.5005C13.7852 15.1681 12.6188 16.3578 11.3832 17.2628C10.7481 17.728 10.0428 18.1573 9.33761 18.39C8.63578 18.6214 7.79305 18.7003 7.03581 18.2364C6.42935 17.8648 6.05792 17.2916 5.97639 16.585C5.90167 15.9375 6.07857 15.258 6.36148 14.6039C6.92845 13.2928 8.09535 11.6961 9.68094 9.8853C11.26 8.0818 12.7902 6.26849 13.771 4.74437C14.2648 3.97695 14.5774 3.34578 14.7068 2.86808C14.8369 2.3878 14.7335 2.27241 14.7231 2.26078C14.5474 2.06199 14.3911 1.96477 14.2536 1.9175C14.1168 1.87053 13.9382 1.85181 13.6845 1.90282C13.1369 2.0129 12.3592 2.42164 11.2542 3.28931Z" fill="black"/>
</svg>
