<svg width="16" height="12" viewBox="0 0 16 12" fill="none" xmlns="http://www.w3.org/2000/svg">
<path d="M16 0.857143C16 0.383756 15.6162 0 15.1429 0H0.857142C0.383756 0 0 0.383756 0 0.857143C0 1.33053 0.383756 1.71429 0.857142 1.71429H8H15.1429C15.6162 1.71429 16 1.33053 16 0.857143Z" fill="black"/>
<path d="M16 7.71429C16 7.2409 15.6162 6.85714 15.1429 6.85714H0.857142C0.383756 6.85714 0 7.2409 0 7.71429C0 8.18767 0.383756 8.57143 0.857142 8.57143H15.1429C15.6162 8.57143 16 8.18767 16 7.71429Z" fill="black"/>
<path d="M16 4.28571C16 3.81233 15.6162 3.42857 15.1429 3.42857H5.42857C4.95518 3.42857 4.57143 3.81233 4.57143 4.28571C4.57143 4.7591 4.95518 5.14286 5.42857 5.14286H15.1429C15.6162 5.14286 16 4.7591 16 4.28571Z" fill="black"/>
<path d="M16 11.1429C16 10.6695 15.6162 10.2857 15.1429 10.2857H5.42857C4.95518 10.2857 4.57143 10.6695 4.57143 11.1429C4.57143 11.6162 4.95518 12 5.42857 12H15.1429C15.6162 12 16 11.6162 16 11.1429Z" fill="black"/>
</svg>
